name rise30.6535peak61.5555fall82.9339.mot
datacolumns 19
datarows 27
range 10.51662700000000 10.55996000000000
endheader
time	ground_force1_vx	ground_force1_vy	ground_force1_vz	ground_force1_px	ground_force1_py	ground_force1_pz	ground_force2_vx	ground_force2_vy	ground_force2_vz	ground_force2_px	ground_force2_py	ground_force2_pz	ground_torque1_x	ground_torque1_y	ground_torque1_z	ground_torque2_x	ground_torque2_y	ground_torque2_z	
10.51662700000000	9.87243300000000	701.21641799999998	46.66431700000000	0.22368900000000	0.00000000000000	0.11659500000000	0.00000000000000	0.00000000000000	0.00000000000000	0.00000000000000	0.00000000000000	0.00000000000000	0.00000000000000	19.24411200000000	0.00000000000000	0.00000000000000	0.00000000000000	0.00000000000000	
10.51829400000000	9.46027400000000	701.38100499999996	46.63950100000000	0.22276600000000	0.00000000000000	0.11665900000000	0.00000000000000	0.00000000000000	0.00000000000000	0.00000000000000	0.00000000000000	0.00000000000000	0.00000000000000	19.25303800000000	0.00000000000000	0.00000000000000	0.00000000000000	0.00000000000000	
10.51995500000000	9.03849000000000	701.57241099999999	46.61784300000000	0.22183100000000	0.00000000000000	0.11672300000000	0.00000000000000	0.00000000000000	0.00000000000000	0.00000000000000	0.00000000000000	0.00000000000000	0.00000000000000	19.26552700000000	0.00000000000000	0.00000000000000	0.00000000000000	0.00000000000000	
10.52162700000000	8.60676600000000	701.79065900000001	46.59922000000000	0.22088300000000	0.00000000000000	0.11678700000000	0.00000000000000	0.00000000000000	0.00000000000000	0.00000000000000	0.00000000000000	0.00000000000000	0.00000000000000	19.28155700000000	0.00000000000000	0.00000000000000	0.00000000000000	0.00000000000000	
10.52328600000000	8.16480600000000	702.03581299999996	46.58351600000000	0.21992500000000	0.00000000000000	0.11685100000000	0.00000000000000	0.00000000000000	0.00000000000000	0.00000000000000	0.00000000000000	0.00000000000000	0.00000000000000	19.30110500000000	0.00000000000000	0.00000000000000	0.00000000000000	0.00000000000000	
10.52495300000000	7.71233100000000	702.30798600000003	46.57062400000000	0.21895400000000	0.00000000000000	0.11691400000000	0.00000000000000	0.00000000000000	0.00000000000000	0.00000000000000	0.00000000000000	0.00000000000000	0.00000000000000	19.32415000000000	0.00000000000000	0.00000000000000	0.00000000000000	0.00000000000000	
10.52661900000000	7.24908400000000	702.60733600000003	46.56044500000000	0.21797200000000	0.00000000000000	0.11697700000000	0.00000000000000	0.00000000000000	0.00000000000000	0.00000000000000	0.00000000000000	0.00000000000000	0.00000000000000	19.35067000000000	0.00000000000000	0.00000000000000	0.00000000000000	0.00000000000000	
10.52829300000000	6.77482600000000	702.93406700000003	46.55288800000000	0.21697900000000	0.00000000000000	0.11704100000000	0.00000000000000	0.00000000000000	0.00000000000000	0.00000000000000	0.00000000000000	0.00000000000000	0.00000000000000	19.38064400000000	0.00000000000000	0.00000000000000	0.00000000000000	0.00000000000000	
10.52995500000000	6.28934500000000	703.28842799999995	46.54787000000000	0.21597600000000	0.00000000000000	0.11710300000000	0.00000000000000	0.00000000000000	0.00000000000000	0.00000000000000	0.00000000000000	0.00000000000000	0.00000000000000	19.41405000000000	0.00000000000000	0.00000000000000	0.00000000000000	0.00000000000000	
10.53162500000000	5.79244600000000	703.67071499999997	46.54531800000000	0.21496200000000	0.00000000000000	0.11716600000000	0.00000000000000	0.00000000000000	0.00000000000000	0.00000000000000	0.00000000000000	0.00000000000000	0.00000000000000	19.45086500000000	0.00000000000000	0.00000000000000	0.00000000000000	0.00000000000000	
10.53328900000000	5.28396300000000	704.08126400000003	46.54516600000000	0.21393800000000	0.00000000000000	0.11722800000000	0.00000000000000	0.00000000000000	0.00000000000000	0.00000000000000	0.00000000000000	0.00000000000000	0.00000000000000	19.49106400000000	0.00000000000000	0.00000000000000	0.00000000000000	0.00000000000000	
10.53495200000000	4.76375100000000	704.52045699999996	46.54735700000000	0.21290400000000	0.00000000000000	0.11728900000000	0.00000000000000	0.00000000000000	0.00000000000000	0.00000000000000	0.00000000000000	0.00000000000000	0.00000000000000	19.53462300000000	0.00000000000000	0.00000000000000	0.00000000000000	0.00000000000000	
10.53662600000000	4.23169400000000	704.98871299999996	46.55184200000000	0.21186100000000	0.00000000000000	0.11735000000000	0.00000000000000	0.00000000000000	0.00000000000000	0.00000000000000	0.00000000000000	0.00000000000000	0.00000000000000	19.58151400000000	0.00000000000000	0.00000000000000	0.00000000000000	0.00000000000000	
10.53828700000000	3.68769900000000	705.48649100000000	46.55858100000000	0.21080900000000	0.00000000000000	0.11741000000000	0.00000000000000	0.00000000000000	0.00000000000000	0.00000000000000	0.00000000000000	0.00000000000000	0.00000000000000	19.63170700000000	0.00000000000000	0.00000000000000	0.00000000000000	0.00000000000000	
10.53997000000000	3.13170300000000	706.01428599999997	46.56754100000000	0.20974900000000	0.00000000000000	0.11746900000000	0.00000000000000	0.00000000000000	0.00000000000000	0.00000000000000	0.00000000000000	0.00000000000000	0.00000000000000	19.68516900000000	0.00000000000000	0.00000000000000	0.00000000000000	0.00000000000000	
10.54162400000000	2.56367100000000	706.57262500000002	46.57869900000000	0.20868100000000	0.00000000000000	0.11752800000000	0.00000000000000	0.00000000000000	0.00000000000000	0.00000000000000	0.00000000000000	0.00000000000000	0.00000000000000	19.74186600000000	0.00000000000000	0.00000000000000	0.00000000000000	0.00000000000000	
10.54329000000000	1.98359300000000	707.16206599999998	46.59203800000000	0.20760600000000	0.00000000000000	0.11758500000000	0.00000000000000	0.00000000000000	0.00000000000000	0.00000000000000	0.00000000000000	0.00000000000000	0.00000000000000	19.80175900000000	0.00000000000000	0.00000000000000	0.00000000000000	0.00000000000000	
10.54495300000000	1.39149300000000	707.78319199999999	46.60755100000000	0.20652300000000	0.00000000000000	0.11764200000000	0.00000000000000	0.00000000000000	0.00000000000000	0.00000000000000	0.00000000000000	0.00000000000000	0.00000000000000	19.86480400000000	0.00000000000000	0.00000000000000	0.00000000000000	0.00000000000000	
10.54661800000000	0.78742200000000	708.43660899999998	46.62523700000000	0.20543500000000	0.00000000000000	0.11769800000000	0.00000000000000	0.00000000000000	0.00000000000000	0.00000000000000	0.00000000000000	0.00000000000000	0.00000000000000	19.93095600000000	0.00000000000000	0.00000000000000	0.00000000000000	0.00000000000000	
10.54828600000000	0.17146100000000	709.12294199999997	46.64510400000000	0.20434100000000	0.00000000000000	0.11775200000000	0.00000000000000	0.00000000000000	0.00000000000000	0.00000000000000	0.00000000000000	0.00000000000000	0.00000000000000	20.00016400000000	0.00000000000000	0.00000000000000	0.00000000000000	0.00000000000000	
10.54996000000000	-0.45627700000000	709.84282900000005	46.66716700000000	0.20324200000000	0.00000000000000	0.11780500000000	0.00000000000000	0.00000000000000	0.00000000000000	0.00000000000000	0.00000000000000	0.00000000000000	0.00000000000000	20.07237200000000	0.00000000000000	0.00000000000000	0.00000000000000	0.00000000000000	
10.55161900000000	-1.09565000000000	710.59691799999996	46.69145000000000	0.20213800000000	0.00000000000000	0.11785700000000	0.00000000000000	0.00000000000000	0.00000000000000	0.00000000000000	0.00000000000000	0.00000000000000	0.00000000000000	20.14752100000000	0.00000000000000	0.00000000000000	0.00000000000000	0.00000000000000	
10.55329100000000	-1.74648400000000	711.38586199999997	46.71798100000000	0.20102900000000	0.00000000000000	0.11790800000000	0.00000000000000	0.00000000000000	0.00000000000000	0.00000000000000	0.00000000000000	0.00000000000000	0.00000000000000	20.22554500000000	0.00000000000000	0.00000000000000	0.00000000000000	0.00000000000000	
10.55495300000000	-2.40857200000000	712.21031300000004	46.74680000000000	0.19991700000000	0.00000000000000	0.11795700000000	0.00000000000000	0.00000000000000	0.00000000000000	0.00000000000000	0.00000000000000	0.00000000000000	0.00000000000000	20.30637400000000	0.00000000000000	0.00000000000000	0.00000000000000	0.00000000000000	
10.55662300000000	-3.08168000000000	713.07091800000001	46.77794900000000	0.19880200000000	0.00000000000000	0.11800500000000	0.00000000000000	0.00000000000000	0.00000000000000	0.00000000000000	0.00000000000000	0.00000000000000	0.00000000000000	20.38993300000000	0.00000000000000	0.00000000000000	0.00000000000000	0.00000000000000	
10.55828500000000	-3.76553900000000	713.96831399999996	46.81148000000000	0.19768500000000	0.00000000000000	0.11805100000000	0.00000000000000	0.00000000000000	0.00000000000000	0.00000000000000	0.00000000000000	0.00000000000000	0.00000000000000	20.47614000000000	0.00000000000000	0.00000000000000	0.00000000000000	0.00000000000000	
10.55996000000000	-4.45985000000000	714.90311799999995	46.84745200000000	0.19656500000000	0.00000000000000	0.11809600000000	0.00000000000000	0.00000000000000	0.00000000000000	0.00000000000000	0.00000000000000	0.00000000000000	0.00000000000000	20.56490800000000	0.00000000000000	0.00000000000000	0.00000000000000	0.00000000000000	
